<svg width="174" height="174" viewBox="0 0 174 174" fill="none" xmlns="http://www.w3.org/2000/svg">
<rect width="174" height="174" rx="5" fill="#C4C4C4"/>
<rect width="174" height="174" rx="5" fill="url(#paint0_linear_401_49)"/>
<path d="M87 23C53.898 23 27 49.898 27 83C27 116.102 53.898 143 87 143C120.005 143 146.828 116.256 146.986 83.288C146.995 83.1923 147 83.0962 147 83C147 82.8982 146.994 82.7965 146.983 82.6952C146.983 82.6904 146.983 82.6856 146.983 82.6808C146.809 49.7288 119.994 23 87 23ZM84 29.324V55.2032C76.7604 54.9872 69.9072 53.9984 63.7128 52.4096C64.8108 49.418 66.0576 46.6436 67.434 44.1428C72.054 35.7548 77.8812 30.602 84 29.3228V29.324ZM90 29.324C96.12 30.602 101.947 35.756 106.566 44.144C107.942 46.6436 109.189 49.418 110.287 52.4096C104.093 53.9984 97.2396 54.9884 90 55.2032V29.324ZM68.5056 32.24C66.1608 34.8272 64.038 37.868 62.1768 41.2472C60.5856 44.1392 59.1708 47.3072 57.942 50.6924C54.3588 49.4684 51.066 48.0368 48.1428 46.4264C47.9424 46.3172 47.7552 46.2032 47.5596 46.0916C53.3555 39.8921 60.5317 35.1469 68.5056 32.2412V32.24ZM105.494 32.24C113.468 35.146 120.645 39.8917 126.44 46.0916C126.245 46.2032 126.056 46.3172 125.857 46.4276C122.934 48.0356 119.64 49.4708 116.056 50.6948C114.829 47.3084 113.416 44.1392 111.823 41.2472C109.962 37.868 107.839 34.8272 105.494 32.24ZM43.662 50.762C44.184 51.074 44.706 51.386 45.2484 51.686C48.5364 53.4968 52.1784 55.082 56.1 56.4176C54.0912 63.596 52.8864 71.57 52.6548 80H33.0864C33.6542 69.425 37.3333 59.2533 43.662 50.762ZM130.338 50.762C136.667 59.2533 140.346 69.425 140.914 80H121.325C121.093 71.5724 119.893 63.5984 117.89 56.42C121.816 55.0844 125.46 53.498 128.752 51.6848C129.293 51.3872 129.816 51.0728 130.338 50.7608V50.762ZM61.8684 58.1396C68.6664 59.9108 76.1328 60.9728 84 61.1888V80H58.6596C58.8924 72.1436 60.0348 64.736 61.8684 58.1396ZM112.132 58.1396C113.965 64.736 115.108 72.1436 115.34 80H90V61.1864C97.866 60.9704 105.335 59.9096 112.132 58.1396ZM33.0876 86H52.6548C52.8864 94.43 54.0912 102.403 56.1 109.58C52.1796 110.918 48.5376 112.504 45.2484 114.315C44.7072 114.613 44.184 114.927 43.662 115.239C37.3331 106.748 33.6539 96.5755 33.0864 86H33.0876ZM58.6596 86H84V104.792C76.1304 105.008 68.664 106.076 61.866 107.851C60.0336 101.257 58.8924 93.8528 58.6596 86ZM90 86H115.34C115.108 93.8528 113.966 101.257 112.134 107.851C105.336 106.076 97.8696 105.009 90 104.792V86ZM121.326 86H140.914C140.346 96.5751 136.667 106.747 130.338 115.238C129.816 114.926 129.294 114.614 128.752 114.314C125.461 112.502 121.816 110.916 117.893 109.578C119.897 102.4 121.096 94.4276 121.326 86ZM84 110.797V136.676C77.88 135.398 72.0528 130.244 67.434 121.856C66.0576 119.356 64.8108 116.582 63.7128 113.59C69.9072 112.002 76.7604 111.012 84 110.797ZM90 110.797C97.2396 111.013 104.093 112.002 110.287 113.59C109.189 116.582 107.942 119.356 106.566 121.857C101.946 130.245 96.1188 135.398 90 136.677V110.796V110.797ZM116.056 115.304C119.64 116.528 122.934 117.962 125.857 119.572C126.058 119.682 126.245 119.796 126.44 119.907C120.645 126.107 113.468 130.853 105.494 133.759C107.839 131.172 109.962 128.131 111.823 124.752C113.414 121.86 114.828 118.692 116.056 115.304ZM57.942 115.306C59.1708 118.692 60.5856 121.86 62.178 124.752C64.038 128.131 66.1608 131.172 68.5056 133.759C60.5316 130.853 53.3554 126.107 47.5596 119.907C47.7552 119.796 47.9436 119.682 48.1428 119.571C51.066 117.963 54.3588 116.53 57.942 115.306Z" fill="url(#paint1_radial_401_49)"/>
<path d="M150 83.097C150 117.946 121.793 146.194 87 146.194C52.2075 146.194 24 117.946 24 83.097C24 48.2481 52.2075 20 87 20C121.793 20 150 48.2481 150 83.097Z" stroke="white" stroke-width="2"/>
<path d="M145.283 83.0975C145.283 115.338 119.187 141.472 86.9991 141.472C54.811 141.472 28.7148 115.338 28.7148 83.0975C28.7148 50.8569 54.811 24.7234 86.9991 24.7234C119.187 24.7234 145.283 50.8569 145.283 83.0975Z" stroke="white" stroke-width="2"/>
<path fill-rule="evenodd" clip-rule="evenodd" d="M107.553 47.128C108.826 47.1823 109.883 47.4536 110.723 47.9421C111.563 48.4034 112.227 48.9868 112.714 49.6924C113.229 50.3708 113.595 51.1035 113.812 51.8904C114.056 52.6502 114.205 53.3693 114.259 54.0478C114.313 54.3734 114.327 54.699 114.299 55.0247C114.299 55.3232 114.286 55.5945 114.259 55.8387C114.313 55.9744 114.34 56.1101 114.34 56.2458L114.421 56.6528L114.462 57.2227C114.57 58.4167 114.299 59.5836 113.649 60.7233C112.999 61.863 112.186 62.9213 111.211 63.8982C111.183 63.9525 111.156 64.0203 111.129 64.1017C111.102 64.156 111.089 64.2239 111.089 64.3053L111.129 64.7123C110.479 65.5807 109.72 66.4355 108.853 67.2767C108.013 68.1179 107.092 68.932 106.09 69.719C105.087 70.5059 104.03 71.2657 102.919 71.9984C101.809 72.7311 100.671 73.3959 99.5055 73.9929L98.7332 74.4C98.2184 74.6171 97.5004 74.9291 96.5792 75.3362C95.685 75.7161 94.7232 76.096 93.6935 76.4759C92.6639 76.8287 91.6208 77.1407 90.564 77.4121C89.5344 77.6834 88.6403 77.8191 87.8816 77.8191H87.719C86.3643 78.199 85.1992 78.484 84.2238 78.6739C83.2754 78.8639 82.7742 78.9589 82.72 78.9589L80.9723 83.9248C80.1866 85.2816 79.5092 86.6656 78.9402 88.0766C78.3983 89.4877 77.9512 90.7631 77.599 91.9029L77.3958 93.2868C77.3145 93.8295 77.2603 94.3994 77.2332 94.9964C77.2061 95.5663 77.2061 96.2311 77.2332 96.9909C77.2874 97.7507 77.3687 98.6327 77.4771 99.6367C77.6125 100.641 77.7887 101.808 78.0054 103.137C78.0867 104.006 78.2899 104.738 78.6151 105.335C78.9673 105.905 79.4144 106.366 79.9563 106.719C80.5253 107.045 81.162 107.276 81.8665 107.411C82.5981 107.547 83.3838 107.615 84.2238 107.615C85.8766 107.615 87.5565 107.384 89.2635 106.923C90.9976 106.434 92.6368 105.756 94.1812 104.888C95.7257 104.019 97.1075 102.988 98.3268 101.794C99.5732 100.573 100.549 99.2297 101.253 97.7643L102.066 96.5432C102.174 96.3261 102.256 96.0954 102.31 95.8512C102.364 95.5798 102.418 95.2949 102.472 94.9964L103.285 91.2516C103.583 89.9762 103.854 88.7822 104.098 87.6696C104.342 86.5299 104.545 85.4851 104.708 84.5354C104.897 83.5856 105.033 82.7851 105.114 82.1338C104.979 81.8353 104.83 81.6046 104.667 81.4418C104.532 81.279 104.45 81.1298 104.423 80.9941C104.396 80.8041 104.681 80.6277 105.277 80.4649C105.9 80.275 106.781 80.18 107.919 80.18C108.46 80.18 109.002 80.3292 109.544 80.6277C110.086 80.8991 110.506 81.4825 110.804 82.378L113.365 82.9479L113.974 84.0876C114.028 84.3318 114.096 84.5761 114.178 84.8203L114.503 85.553L114.746 88.3209C114.692 88.4023 114.665 88.4837 114.665 88.5651C114.692 88.6465 114.706 88.755 114.706 88.8907C114.733 89.1078 114.733 89.5013 114.706 90.0712C114.679 90.641 114.57 91.4415 114.381 92.4727C114.32 92.8555 114.241 93.272 114.144 93.7221C108.664 100.396 110.24 106.028 110.241 105.025C110.243 103.144 111.751 99.5811 113.127 96.333C113.451 95.5685 113.767 94.8214 114.055 94.1177C113.902 94.7782 113.713 95.5052 113.487 96.2989C113.08 97.8186 112.484 99.6367 111.698 101.753L109.097 113.151L109.178 114.127C109.206 114.535 109.178 114.982 109.097 115.471C109.016 115.986 108.894 116.529 108.731 117.099C108.596 117.669 108.42 118.239 108.203 118.808C108.013 119.405 107.824 119.989 107.634 120.559L105.033 127.886C104.952 128.048 104.911 128.238 104.911 128.455L101.985 134.073L97.9204 140.667C96.7824 142.811 95.6037 144.791 94.3845 146.61C93.1652 148.455 91.8917 150.042 90.564 151.372C89.2364 152.729 87.8274 153.787 86.3372 154.547C84.8741 155.334 83.3025 155.727 81.6226 155.727C80.8098 155.727 79.9563 155.551 79.0621 155.198C78.168 154.845 77.3416 154.371 76.5829 153.774C75.8513 153.177 75.2282 152.471 74.7134 151.657C74.2249 150.91 73.9315 150.115 73.8334 149.27C73.8557 149.188 73.8781 148.912 73.9005 148.441C73.9276 147.899 73.9818 147.193 74.0631 146.325C74.1444 145.456 74.2663 144.507 74.4289 143.475C74.5914 142.444 74.8217 141.454 75.1198 140.504C75.4178 139.554 75.7972 138.727 76.2578 138.021C76.7455 137.315 77.328 136.841 78.0054 136.596C79.7937 134.181 81.8123 131.861 84.0612 129.636C86.3101 127.438 88.5184 125.443 90.686 123.652L95.9289 119.338C96.2269 118.795 96.5792 118.076 96.9856 117.18C97.4191 116.285 97.8797 115.267 98.3675 114.127C98.5842 113.612 98.7739 113.042 98.9365 112.418C99.099 111.794 99.2345 111.142 99.3429 110.464C99.4784 109.786 99.5867 109.107 99.668 108.429C99.7764 107.75 99.8848 107.099 99.9932 106.475C99.4784 106.801 98.9635 107.113 98.4487 107.411C97.9339 107.683 97.4191 107.94 96.9043 108.185C96.3895 108.592 95.685 108.917 94.7909 109.162C93.8967 109.406 92.9349 109.596 91.9053 109.731C90.9027 109.84 89.9002 109.908 88.8977 109.935C87.8952 109.962 87.0417 109.976 86.3372 109.976C84.0883 109.976 81.9478 109.718 79.9156 109.202C77.9106 108.66 76.1088 107.818 74.5101 106.679C72.9386 105.539 71.638 104.101 70.6084 102.364C69.6059 100.6 69.0098 98.497 68.8201 96.0547C68.766 95.5934 68.7253 95.1321 68.6982 94.6708C68.6711 94.1823 68.6711 93.6939 68.6982 93.2054L68.4137 91.4144L68.1699 88.9721C68.2241 88.348 68.346 87.6425 68.5356 86.8555C68.6982 86.0414 68.915 85.2002 69.1859 84.3318C69.4298 83.4363 69.7007 82.5408 69.9988 81.6453C70.2968 80.7227 70.5813 79.8272 70.8523 78.9589L69.9175 78.7146C68.3731 78.4433 66.9912 78.0769 65.7719 77.6156C64.5256 77.1272 63.4553 76.5166 62.5612 75.7839C61.6399 75.0512 60.9219 74.1829 60.4071 73.1788C59.8652 72.1476 59.54 70.9537 59.4317 69.5968C59.2962 68.0501 59.4317 66.5847 59.8381 65.2008C60.2174 63.8168 60.7051 62.5957 61.3012 61.5374L62.7644 58.3624C63.0895 58.0368 63.4147 57.7926 63.7398 57.6297C64.0378 57.4669 64.2952 57.3855 64.512 57.3855C64.8101 57.4398 64.9591 57.5212 64.9591 57.6297C64.9591 57.7383 64.932 57.874 64.8778 58.0368C64.7965 58.1996 64.7152 58.3896 64.6339 58.6066C64.5527 58.7966 64.4849 59.0273 64.4307 59.2986C64.3494 59.5428 64.3223 59.8006 64.3494 60.072C64.4036 60.7233 64.5391 61.4288 64.7559 62.1886C64.9726 62.9213 65.23 63.5997 65.5281 64.2239C65.4739 64.4681 65.4197 64.7259 65.3655 64.9972C65.2842 65.2686 65.1894 65.5264 65.081 65.7706L64.7559 67.3174C64.7288 67.5616 64.7152 67.8058 64.7152 68.0501C64.6881 68.2943 64.6881 68.5385 64.7152 68.7827C64.7694 69.4883 65.0133 70.1396 65.4468 70.7366C65.8803 71.3336 66.4358 71.8763 67.1131 72.3647C67.7905 72.8532 68.5763 73.2874 69.4704 73.6673C70.3375 74.0201 71.2587 74.3186 72.2341 74.5628C72.2612 74.5628 72.3696 74.3321 72.5593 73.8708C72.7489 73.4095 72.9522 72.8939 73.1689 72.324C73.3857 71.727 73.6024 71.1572 73.8192 70.6144C74.036 70.0717 74.185 69.7054 74.2663 69.5154C74.3747 68.8642 74.4966 68.2536 74.6321 67.6837C74.7946 67.0867 75.0249 66.5033 75.323 65.9334L76.1358 64.3053L75.892 64.061C75.9462 64.061 76.1088 63.8982 76.3797 63.5726C76.6778 63.2469 76.9893 62.867 77.3145 62.4329C77.6667 61.9715 78.019 61.5238 78.3712 61.0896C78.7234 60.6554 78.9944 60.3434 79.1841 60.1534L81.1349 58.1996H81.2975C81.3788 58.1725 81.4601 58.1182 81.5413 58.0368L82.4355 56.9785C82.4897 56.8428 82.571 56.7342 82.6793 56.6528C82.7877 56.5714 82.869 56.49 82.9232 56.4086C84.8199 54.5091 86.6894 52.908 88.5319 51.6055C90.4015 50.2758 92.1898 49.2039 93.8967 48.3898C95.6037 47.5486 97.2295 46.938 98.7739 46.5581C100.345 46.1782 101.809 45.9883 103.163 45.9883C103.57 45.9883 103.922 46.0018 104.22 46.029C104.545 46.029 104.87 46.0697 105.195 46.1511C105.521 46.2054 105.859 46.3139 106.212 46.4767C106.591 46.6396 107.038 46.8566 107.553 47.128ZM73.8334 149.27C73.8286 149.287 73.8239 149.296 73.8192 149.296V149.133C73.8234 149.179 73.8281 149.225 73.8334 149.27ZM80.9723 151.087C82.002 150.843 83.0451 150.232 84.1018 149.255C85.1585 148.278 86.1746 147.098 87.15 145.714C87.2313 145.606 87.3804 145.361 87.5971 144.981C87.8139 144.602 88.0577 144.14 88.3287 143.597C88.6267 143.055 88.9248 142.458 89.2228 141.806C89.548 141.182 89.8325 140.558 90.0763 139.934C90.3202 139.31 90.5098 138.713 90.6453 138.143C90.8079 137.6 90.8756 137.139 90.8485 136.759L92.9213 130.572C93.409 129.052 93.8426 127.736 94.2219 126.624C94.6012 125.511 94.7909 124.711 94.7909 124.222C94.7367 124.222 94.4387 124.399 93.8967 124.751C93.3819 125.104 92.8942 125.498 92.4336 125.932L88.6132 129.595C87.4481 130.572 86.2559 131.671 85.0366 132.892C83.8444 134.113 82.7064 135.362 81.6226 136.637C80.5388 137.94 79.5634 139.215 78.6963 140.463C77.8293 141.739 77.1655 142.919 76.7048 144.005C76.7319 144.384 76.7726 144.656 76.8268 144.819C76.881 145.009 76.9487 145.171 77.03 145.307L76.7861 146.772C76.7319 146.962 76.7184 147.139 76.7455 147.302C76.7997 147.492 76.8539 147.668 76.9081 147.831L77.1519 148.319C77.2332 148.482 77.2738 148.645 77.2738 148.808C77.3551 149.676 77.7074 150.287 78.3306 150.639C78.9808 150.992 79.6718 151.168 80.4033 151.168H80.6472C80.7285 151.168 80.8369 151.141 80.9723 151.087ZM109.91 58.281C110.1 57.4941 110.14 56.8428 110.032 56.3272C109.951 55.8116 109.788 55.391 109.544 55.0654C109.3 54.7397 109.002 54.5091 108.65 54.3734C108.325 54.2106 108 54.102 107.675 54.0478C107.35 53.9663 107.065 53.9256 106.821 53.9256C106.604 53.8985 106.482 53.8578 106.455 53.8035C105.507 53.8035 104.45 54.102 103.285 54.699C102.12 55.2689 100.806 56.083 99.3429 57.1413L96.945 59.4207L96.7417 59.8278L93.409 62.5957C93.0568 62.9213 92.691 63.2605 92.3117 63.6133C91.9594 63.9389 91.5937 64.3053 91.2143 64.7123L90.8892 65.5264L89.1415 67.7244C88.5184 68.5114 87.9629 69.2848 87.4752 70.0446L86.0933 72.1205L84.3457 75.4583C86.0256 75.3226 87.6919 75.0919 89.3448 74.7663C91.0247 74.4407 92.6233 73.9793 94.1406 73.3823C95.685 72.7853 97.1211 72.0255 98.4487 71.1029C99.8035 70.1531 100.982 68.9998 101.985 67.643C102.391 67.4802 102.865 67.236 103.407 66.9103C103.976 66.5847 104.559 66.2184 105.155 65.8113C105.778 65.3771 106.374 64.9158 106.943 64.4274C107.539 63.9389 108.068 63.4369 108.528 62.9213C108.826 62.1344 109.084 61.361 109.3 60.6012C109.544 59.8413 109.747 59.068 109.91 58.281ZM74.3017 103.073C73.222 99.1885 71.2077 90.8259 71.7883 88.4524C72.514 85.4856 68.3182 96.8427 74.3017 103.073Z" fill="white"/>
<defs>
<linearGradient id="paint0_linear_401_49" x1="174" y1="-7.94046e-06" x2="-34.5773" y2="68.1069" gradientUnits="userSpaceOnUse">
<stop stop-color="#05356B"/>
<stop offset="1" stop-color="#021831"/>
</linearGradient>
<radialGradient id="paint1_radial_401_49" cx="0" cy="0" r="1" gradientUnits="userSpaceOnUse" gradientTransform="translate(87 83) rotate(90) scale(60 252.984)">
<stop stop-color="white" stop-opacity="0"/>
<stop offset="1" stop-color="white" stop-opacity="0.15"/>
</radialGradient>
</defs>
</svg>
